<svg id="グループ_9" data-name="グループ 9" xmlns="http://www.w3.org/2000/svg" xmlns:xlink="http://www.w3.org/1999/xlink" width="93.885" height="127.999" viewBox="0 0 93.885 127.999">
  <defs>
    <clipPath id="clip-path">
      <rect id="長方形_7" data-name="長方形 7" width="93.885" height="127.999" transform="translate(0 0)" fill="#818181"/>
    </clipPath>
  </defs>
  <g id="グループ_8" data-name="グループ 8" clip-path="url(#clip-path)">
    <path id="パス_2" data-name="パス 2" d="M46.942,30.018,19.2,3.184A11.324,11.324,0,0,0,0,11.325v68.5A17,17,0,0,0,5.178,92.036l33.891,32.779a11.324,11.324,0,0,0,15.746,0L88.708,92.036a17,17,0,0,0,5.177-12.211v-68.5a11.324,11.324,0,0,0-19.2-8.141ZM77.9,77.852a5.657,5.657,0,0,1-1.727,4.07L46.942,110.2V52.25L52.5,46.877,73.106,26.948a2.831,2.831,0,0,1,4.8,2.033Z" fill="#818181"/>
  </g>
</svg>
