<svg xmlns="http://www.w3.org/2000/svg" xmlns:xlink="http://www.w3.org/1999/xlink" width="128" height="120.035" viewBox="0 0 128 120.035">
  <defs>
    <clipPath id="clip-path">
      <rect id="長方形_13" data-name="長方形 13" width="128" height="120.035" fill="#818181"/>
    </clipPath>
  </defs>
  <g id="グループ_2101" data-name="グループ 2101" transform="translate(145 32)">
    <g id="グループ_15" data-name="グループ 15" transform="translate(-145 -32)" clip-path="url(#clip-path)">
      <path id="パス_12" data-name="パス 12" d="M11.823,101.729A14.971,14.971,0,0,1,7.415,91.113V75.665H0V91.113a22.463,22.463,0,0,0,22.441,22.444H32.574v-7.418H22.441a14.956,14.956,0,0,1-10.618-4.41" fill="#818181"/>
      <path id="パス_13" data-name="パス 13" d="M21.483,55a9.788,9.788,0,1,0-9.788-9.788A9.781,9.781,0,0,0,21.483,55" fill="#818181"/>
      <path id="パス_14" data-name="パス 14" d="M44.791,88.345H31.059V67.9a9.576,9.576,0,1,0-19.151,0V91.192a9.575,9.575,0,0,0,9.574,9.577c.719,0,17.506-.049,17.506-.049l.919,14.172a5.258,5.258,0,1,0,10.513-.231l.558-20.129a6.184,6.184,0,0,0-6.187-6.187" fill="#818181"/>
      <path id="パス_15" data-name="パス 15" d="M120.585,75.665V91.114a15.055,15.055,0,0,1-15.024,15.026H95.426v7.417h10.135A22.463,22.463,0,0,0,128,91.114V75.665Z" fill="#818181"/>
      <path id="パス_16" data-name="パス 16" d="M106.517,55a9.789,9.789,0,1,0-9.786-9.788A9.785,9.785,0,0,0,106.517,55" fill="#818181"/>
      <path id="パス_17" data-name="パス 17" d="M116.094,91.192V67.906a9.577,9.577,0,1,0-19.154,0V88.345H83.208a6.185,6.185,0,0,0-6.187,6.188l.558,20.128a5.258,5.258,0,1,0,10.513.231l.919-14.172s16.788.049,17.506.049a9.577,9.577,0,0,0,9.577-9.577" fill="#818181"/>
      <rect id="長方形_11" data-name="長方形 11" width="53.096" height="9.037" transform="translate(38.413 75.758)" fill="#818181"/>
      <rect id="長方形_12" data-name="長方形 12" width="6.179" height="21.874" transform="translate(61.012 89.646)" fill="#818181"/>
      <path id="パス_18" data-name="パス 18" d="M89.9,35.869a8.731,8.731,0,0,1-1.668,5.073,12.655,12.655,0,0,1-4.616,3.89l-1.423.73,1.845,4.121a73.583,73.583,0,0,1-13.4-3.805l-.054-.023-.055-.015a13.05,13.05,0,0,1-7.656-5.834L59.9,41.627a16.359,16.359,0,0,0,9.507,7.389v0a72.92,72.92,0,0,0,17.227,4.451l2.928.322-3.027-6.77a15.426,15.426,0,0,0,4.448-4.139,12.126,12.126,0,0,0,2.284-7.015,12.448,12.448,0,0,0-3.444-8.443A17.755,17.755,0,0,0,81.4,22.471l-.889,3.254a14.347,14.347,0,0,1,6.833,3.983A9.031,9.031,0,0,1,89.9,35.869" fill="#818181"/>
      <path id="パス_19" data-name="パス 19" d="M40.431,35.109l-4.057,9.07,2.931-.325a103.222,103.222,0,0,0,24.4-6.3A24.117,24.117,0,0,0,74.56,30.665a16.948,16.948,0,0,0,4.393-11.2,16.286,16.286,0,0,0-1.966-7.715,21.162,21.162,0,0,0-8.835-8.512A28.354,28.354,0,0,0,54.795,0,27.366,27.366,0,0,0,37.86,5.572,19.943,19.943,0,0,0,32.6,11.749a16.33,16.33,0,0,0-1.963,7.715,16.635,16.635,0,0,0,3.125,9.595,21.637,21.637,0,0,0,6.667,6.05m-4.852-21.77a17.844,17.844,0,0,1,7.45-7.131A24.983,24.983,0,0,1,54.795,3.375a24,24,0,0,1,14.847,4.84,16.531,16.531,0,0,1,4.371,5.124,12.9,12.9,0,0,1,1.567,6.125,13.575,13.575,0,0,1-3.556,8.981,20.777,20.777,0,0,1-9.438,5.927l-.049.016-.052.022A104.615,104.615,0,0,1,41.893,40.1l2.9-6.484-1.425-.729a18.734,18.734,0,0,1-6.845-5.772,13.213,13.213,0,0,1-2.516-7.651,12.893,12.893,0,0,1,1.57-6.125" fill="#818181"/>
    </g>
  </g>
</svg>
