<svg id="グループ_80" data-name="グループ 80" xmlns="http://www.w3.org/2000/svg" xmlns:xlink="http://www.w3.org/1999/xlink" width="289" height="33.283" viewBox="0 0 289 33.283">
  <defs>
    <clipPath id="clip-path">
      <rect id="長方形_129" data-name="長方形 129" width="289" height="33.283" fill="none"/>
    </clipPath>
  </defs>
  <g id="グループ_81" data-name="グループ 81">
    <path id="パス_89" data-name="パス 89" d="M52.465,48.6l1.105-3.414h.844l1.1,3.414h-.844l-.187-.74H53.479l-.187.74Zm1.159-1.342h.712l-.351-1.383h-.009Z" transform="translate(-20.128 -17.335)" fill="#fff"/>
    <g id="グループ_79" data-name="グループ 79">
      <g id="グループ_78" data-name="グループ 78" clip-path="url(#clip-path)">
        <path id="パス_90" data-name="パス 90" d="M58.889,45.184v2.232a.678.678,0,0,0,.121.454.638.638,0,0,0,.785,0,.674.674,0,0,0,.121-.454V45.184H60.7v2.178a1.308,1.308,0,0,1-2.615,0V45.184Z" transform="translate(-22.285 -17.335)" fill="#fff"/>
        <path id="パス_91" data-name="パス 91" d="M65.837,45.185v.662h-.9V48.6h-.812V45.846h-.9v-.662Z" transform="translate(-24.253 -17.335)" fill="#fff"/>
        <path id="パス_92" data-name="パス 92" d="M70.855,48.151a1.7,1.7,0,0,1-2.337,0,2.143,2.143,0,0,1,0-2.574,1.7,1.7,0,0,1,2.337,0,2.146,2.146,0,0,1,0,2.574m-.383-1.287q0-1.1-.786-1.1t-.785,1.1q0,1.1.785,1.1t.786-1.1" transform="translate(-26.123 -17.307)" fill="#fff"/>
        <path id="パス_93" data-name="パス 93" d="M76.455,46.2h-.009l-.457,2.4h-.813l-.451-2.4h-.01l-.165,2.4h-.767l.383-3.414h.95l.47,2.606h.01l.474-2.606h.945L77.4,48.6h-.786Z" transform="translate(-28.308 -17.335)" fill="#fff"/>
        <path id="パス_94" data-name="パス 94" d="M82.926,48.151a1.7,1.7,0,0,1-2.337,0,2.143,2.143,0,0,1,0-2.574,1.7,1.7,0,0,1,2.337,0,2.146,2.146,0,0,1,0,2.574m-.383-1.287q0-1.1-.786-1.1t-.785,1.1q0,1.1.785,1.1t.786-1.1" transform="translate(-30.754 -17.307)" fill="#fff"/>
        <path id="パス_95" data-name="パス 95" d="M88.606,47.595a.862.862,0,0,1-.352.762A2.111,2.111,0,0,1,87.1,48.6H86.16V45.185h.885a2.171,2.171,0,0,1,1.109.214.705.705,0,0,1,.342.639.681.681,0,0,1-.187.486.911.911,0,0,1-.516.258v.009a.97.97,0,0,1,.594.267.737.737,0,0,1,.219.536M86.94,46.535H87.1a1.079,1.079,0,0,0,.52-.093.311.311,0,0,0,.16-.29.306.306,0,0,0-.129-.274.835.835,0,0,0-.441-.087H86.94Zm0,.571V48h.279a.825.825,0,0,0,.49-.114.43.43,0,0,0,.153-.37A.335.335,0,0,0,87.7,47.2a1.1,1.1,0,0,0-.542-.1Z" transform="translate(-33.056 -17.335)" fill="#fff"/>
        <rect id="長方形_127" data-name="長方形 127" width="0.872" height="3.415" transform="translate(56.121 27.85)" fill="#fff"/>
        <path id="パス_96" data-name="パス 96" d="M94.551,45.185v2.757h1.442V48.6H93.735V45.185Z" transform="translate(-35.962 -17.335)" fill="#fff"/>
        <path id="パス_97" data-name="パス 97" d="M99.165,45.828v.694h1.292v.6H99.165v.836h1.383V48.6H98.371V45.184h2.176v.643Z" transform="translate(-37.741 -17.335)" fill="#fff"/>
        <path id="パス_98" data-name="パス 98" d="M110.123,46.846a1.719,1.719,0,0,1-.472,1.3,1.889,1.889,0,0,1-1.353.449h-.9V45.184h.9a1.927,1.927,0,0,1,1.353.436,1.587,1.587,0,0,1,.472,1.226m-.757,0a1.077,1.077,0,0,0-.249-.787,1,1,0,0,0-.737-.249h-.206v2.168h.206a.959.959,0,0,0,.741-.267,1.259,1.259,0,0,0,.244-.865" transform="translate(-41.204 -17.335)" fill="#fff"/>
        <path id="パス_99" data-name="パス 99" d="M113.427,45.828v.694h1.292v.6h-1.292v.836h1.383V48.6h-2.176V45.184h2.176v.643Z" transform="translate(-43.213 -17.335)" fill="#fff"/>
        <path id="パス_100" data-name="パス 100" d="M116.831,48.6l1.105-3.414h.844l1.1,3.414h-.844l-.187-.74h-1.008l-.187.74Zm1.159-1.342h.712l-.351-1.383h-.009Z" transform="translate(-44.823 -17.335)" fill="#fff"/>
        <path id="パス_101" data-name="パス 101" d="M123.342,45.185v2.757h1.442V48.6h-2.259V45.185Z" transform="translate(-47.007 -17.335)" fill="#fff"/>
        <path id="パス_102" data-name="パス 102" d="M127.955,45.828v.694h1.292v.6h-1.292v.836h1.383V48.6h-2.176V45.184h2.176v.643Z" transform="translate(-48.786 -17.335)" fill="#fff"/>
        <path id="パス_103" data-name="パス 103" d="M132.555,47.34V48.6h-.78V45.185H132.8a2.048,2.048,0,0,1,1.132.242.828.828,0,0,1,.351.731.933.933,0,0,1-.184.563.962.962,0,0,1-.482.354v.009a.975.975,0,0,1,.4.557l.361.958h-.817l-.324-.926a.526.526,0,0,0-.158-.264.493.493,0,0,0-.29-.068Zm.292-1.548h-.292v.963h.259a.8.8,0,0,0,.5-.137.458.458,0,0,0,.174-.38.394.394,0,0,0-.149-.34.869.869,0,0,0-.495-.107" transform="translate(-50.556 -17.335)" fill="#fff"/>
        <path id="パス_104" data-name="パス 104" d="M19.653,33.283a9.178,9.178,0,0,1-3.6-.727l.256-.6c1.654.7,3.346.341,5.429-.408a8.662,8.662,0,0,0,2.84-2,7.918,7.918,0,0,0,1.7-2.813,6.483,6.483,0,0,0,.341-2.857,7.923,7.923,0,0,0-.7-2.62,6.242,6.242,0,0,0-1.52-1.963,6.7,6.7,0,0,0-2.135-1.44,6.774,6.774,0,0,0-5.228,0,6.724,6.724,0,0,0-3.575,8.8l.743,1.756H12.3c-3.993,0-12.3,0-12.3-6.014,0-5.053,8.889-8.254,17.992-11.1,1.585-.5,2.955-.923,3.661-1.221a42.027,42.027,0,0,0,3.8-2.094C30.868,4.8,39.045,0,46.814,0V.948c-7.081,0-14.9,6.172-20.077,9.211a41.866,41.866,0,0,1-4.1,2.244c-.818.345-2.173.769-3.888,1.3C13.894,15.226,2.528,18.778,2.528,22.4c0,1.6,1,3.238,8.059,3.46a9.284,9.284,0,0,1-.178-1.816,9.257,9.257,0,0,1,5.646-8.517,9.316,9.316,0,0,1,7.2,0,9.243,9.243,0,0,1-3.6,17.76" fill="#fff"/>
        <path id="パス_105" data-name="パス 105" d="M67.29,16.1V30.548a.723.723,0,0,1-.724.724h-3a.724.724,0,0,1-.724-.724V21.1a.122.122,0,0,0-.24-.033l-2.709,9.675a.725.725,0,0,1-.7.528H57.712a.724.724,0,0,1-.695-.52l-2.786-9.534a.123.123,0,0,0-.24.035v9.3a.723.723,0,0,1-.724.724h-.1a.723.723,0,0,1-.724-.724V16.1a.724.724,0,0,1,.724-.724h3.411a.723.723,0,0,1,.7.526l2.458,8.653a.123.123,0,0,0,.236,0L62.412,15.9a.725.725,0,0,1,.7-.527h3.456a.724.724,0,0,1,.724.724" transform="translate(-20.12 -5.899)" fill="#fff"/>
        <path id="パス_106" data-name="パス 106" d="M85.62,16.1V30.548a.723.723,0,0,1-.724.724H81.732a.723.723,0,0,1-.723-.724V16.1a.723.723,0,0,1,.723-.724H84.9a.723.723,0,0,1,.724.724" transform="translate(-31.079 -5.899)" fill="#fff"/>
        <path id="パス_107" data-name="パス 107" d="M92.95,30.548V16.1a.723.723,0,0,1,.724-.724h6.345q5.461,0,5.461,3.9,0,2.567-2.828,3.426a.121.121,0,0,0,0,.233q3.5.895,3.5,4.109,0,4.228-5.346,4.228H93.674a.724.724,0,0,1-.724-.724m4.611-8.735a.48.48,0,0,0,.481.48h.94q1.968,0,1.969-2.911,0-2.689-2.084-2.69h-.824a.48.48,0,0,0-.481.48Zm0,7.662a.481.481,0,0,0,.481.481h.835q2.586,0,2.586-2.958,0-3.388-2.667-3.389h-.754a.481.481,0,0,0-.481.481Z" transform="translate(-35.661 -5.899)" fill="#fff"/>
        <path id="パス_108" data-name="パス 108" d="M128.389,15.376a.723.723,0,0,1,.724.724v9.943q0,5.485-6.067,5.485-6.044,0-6.044-5.485V16.1a.723.723,0,0,1,.724-.724h3.165a.723.723,0,0,1,.724.724V26.182a4.9,4.9,0,0,0,.6,2.865,2.678,2.678,0,0,0,2.218.769q3.134,0,3.133-3.774V16.1a.723.723,0,0,1,.724-.724Z" transform="translate(-44.888 -5.899)" fill="#fff"/>
        <path id="パス_109" data-name="パス 109" d="M151.129,39.875V43.4h11.9a56.071,56.071,0,0,1,5.747.263q2.554.264,4.629.625V40.862a56.143,56.143,0,0,0-10.376-.987Z" transform="translate(-57.981 -15.298)" fill="#fff"/>
        <path id="パス_110" data-name="パス 110" d="M168.579,12.148q2.552.248,4.629.609V9.331a56.386,56.386,0,0,0-10.41-.988H152.145v3.524H162.8q3.228.034,5.781.281" transform="translate(-58.371 -3.201)" fill="#fff"/>
        <path id="パス_111" data-name="パス 111" d="M153.428,23.735v3.524h8.84a56.617,56.617,0,0,1,5.781.264q2.553.263,4.628.626V24.723a52.98,52.98,0,0,0-10.409-.988Z" transform="translate(-58.863 -9.106)" fill="#fff"/>
        <path id="パス_112" data-name="パス 112" d="M217.485,6.427H195.829V10.05h18.527a20.771,20.771,0,0,1-1.582,8.1,14.616,14.616,0,0,1-3.343,4.578,14.122,14.122,0,0,1-4,2.585,39.982,39.982,0,0,1-5.771,1.236v3.591a51.981,51.981,0,0,0,5.227-.923,23.072,23.072,0,0,0,4.085-1.829,15.6,15.6,0,0,0,4.068-3.358,19.718,19.718,0,0,0,3.311-5.518,21.666,21.666,0,0,0,1.465-8.039V8.437h1.945V3.694h-2.273Z" transform="translate(-75.131 -1.417)" fill="#fff"/>
        <rect id="長方形_128" data-name="長方形 128" width="2.272" height="4.743" transform="translate(145.911 2.277)" fill="#fff"/>
        <path id="パス_113" data-name="パス 113" d="M257.374,5.372l-3.082-.362a34.5,34.5,0,0,1-1.176,3.751h-8.09V30.908h3v-1.4h15.622v1.4h3V8.761H256.309a27.441,27.441,0,0,0,1.064-3.389m6.271,21.644H248.022v-3.7h15.622Zm0-6.1H248.022V17.272h15.622Zm0-6.022H248.022V11.308h15.622Z" transform="translate(-94.005 -1.922)" fill="#fff"/>
        <path id="パス_114" data-name="パス 114" d="M307.567,6.371h-2.8q0,3.054-.084,5.6h-2.578v-.643h-5.094V9.7q2.628-.279,5.01-.672l-.335-2.521a100.86,100.86,0,0,1-12.852,1.262l.139,2.436q2.493-.057,5.013-.254v1.374h-5.6v2.265h5.6v1.26h-4.957v8.709h4.957v1.26h-5.378v2.24h5.378V28.52q-2.549.223-5.852.391l.14,2.464Q294.492,31.1,300.9,30.2l2.24,1.373a22.185,22.185,0,0,0,2.926-6.721,53.535,53.535,0,0,0,1.33-10.331h3.276v1.093q0,3.417-.055,5.767t-.156,3.725a11.878,11.878,0,0,1-.293,2.1,2.507,2.507,0,0,1-.379.925.6.6,0,0,1-.462.2,23.346,23.346,0,0,1-3.024-.251l.055,2.715a37.279,37.279,0,0,0,3.81.281,4.96,4.96,0,0,0,1.246-.125,1.806,1.806,0,0,0,.909-.744,4.062,4.062,0,0,0,.646-1.65q.2-1.035.377-3.054t.24-4.76q.055-2.744.055-6.943V11.972h-6.161q.084-2.576.084-5.6M297.013,17.039h2.043v1.344h-2.043Zm0,3h2.043v1.344h-2.043Zm-3.023,1.344h-2.157V20.035h2.157Zm0-3h-2.157V17.039h2.157Zm9.63,4.732a19.645,19.645,0,0,1-2.073,5.628l-.083-.953q-2.465.283-4.451.476v-1.2h4.732v-2.24h-4.732v-1.26h4.732V14.854h-4.732v-1.26h4.732v.925H304.6a52.953,52.953,0,0,1-.979,8.6" transform="translate(-110.545 -2.444)" fill="#fff"/>
        <path id="パス_115" data-name="パス 115" d="M349.17,23.927h8.875V12.953H349.17V10.992h10.949V8.612H349.17v-2.6h-3.08v2.6H335.141v2.38H346.09v1.962h-8.875V23.927h8.875V26H334.834v2.408H346.09v3.442h3.08V28.409h11.255V26H349.17Zm0-8.736h5.964V17.32H349.17Zm0,4.228h5.964v2.269H349.17Zm-3.08,2.269h-5.964V19.419h5.964Zm0-4.367h-5.964V15.191h5.964Z" transform="translate(-128.461 -2.305)" fill="#fff"/>
        <path id="パス_116" data-name="パス 116" d="M391.213,24.732V7.6h-8.678V24.732h8.678Zm-5.88-14.614h3.222v2.547h-3.222Zm0,4.759h3.222v2.547h-3.222Zm0,4.788h3.222v2.547h-3.222Z" transform="translate(-146.761 -2.915)" fill="#fff"/>
        <path id="パス_117" data-name="パス 117" d="M405.863,16.46V14h-11.03v-3.64h11.732V7.782h-14.7v8.09q0,8.035-2.352,12.18a29.173,29.173,0,0,0-1.68-2.716l-1.9.952-2.017-1.064a20.938,20.938,0,0,1-3.7,5.515l2.129,1.541a18.339,18.339,0,0,0,3.556-5.292,31.211,31.211,0,0,1,2.324,4.088l1.4-.644,1.037,1.4a18.67,18.67,0,0,0,1.4-2.043l1.092,2.182a22.045,22.045,0,0,0,6.579-4.2,19.01,19.01,0,0,0,6.075,4.2l1.374-2.436a18,18,0,0,1-5.518-3.89,24.493,24.493,0,0,0,4.2-9.185M392.285,29.284a23.235,23.235,0,0,0,2.519-9.94,23.049,23.049,0,0,0,3.135,6.245,18.4,18.4,0,0,1-5.654,3.7m4.759-12.4-2.212.839V16.46h8.034a21.258,21.258,0,0,1-3.052,6.861,22.7,22.7,0,0,1-2.771-6.44" transform="translate(-145.872 -2.986)" fill="#fff"/>
        <path id="パス_118" data-name="パス 118" d="M442.4,8.445V6.372h-3.079V8.445H428.368v2.38h10.949v2.043H430.3v2.324h21.11V12.867H442.4V10.824h10.949V8.445Z" transform="translate(-164.345 -2.445)" fill="#fff"/>
        <path id="パス_119" data-name="パス 119" d="M459.028,34.792c-.019.282-.051.607-.1.981s-.079.626-.1.756a1.592,1.592,0,0,1-.491.783,1.61,1.61,0,0,1-.418.128,2.648,2.648,0,0,1-.547.07h-.758a8.424,8.424,0,0,1-2.224-.155q-.352-.153-.351-.992V29.584h-3.052v7.365a7.5,7.5,0,0,0,.1,1.4,2.517,2.517,0,0,0,.351.869,1.346,1.346,0,0,0,.909.53,11.612,11.612,0,0,0,1.513.211q.854.069,2.422.07,1.147,0,1.75-.014a9.831,9.831,0,0,0,1.3-.126,5.548,5.548,0,0,0,.995-.226,1.9,1.9,0,0,0,.658-.5,2.066,2.066,0,0,0,.476-.755q.112-.363.265-1.149a11.266,11.266,0,0,0,.2-1.524q.042-.742.1-2.059l-2.94-.223c-.021.616-.039,1.064-.058,1.343" transform="translate(-173.026 -11.35)" fill="#fff"/>
        <path id="パス_120" data-name="パス 120" d="M434.252,34.8a12.308,12.308,0,0,1-5.839,3.066l1.262,2.438a13.966,13.966,0,0,0,6.984-3.879,10.937,10.937,0,0,0,2.536-6.789l-2.884-.281a9.023,9.023,0,0,1-2.059,5.445" transform="translate(-164.363 -11.263)" fill="#fff"/>
        <path id="パス_121" data-name="パス 121" d="M453.038,29.333v-5.88h-23.35V29.64H432.6v-3.89h17.526v3.583Z" transform="translate(-164.852 -8.998)" fill="#fff"/>
      </g>
    </g>
  </g>
</svg>
