<svg xmlns="http://www.w3.org/2000/svg" xmlns:xlink="http://www.w3.org/1999/xlink" width="29.655" height="46.384" viewBox="0 0 29.655 46.384">
  <defs>
    <clipPath id="clip-path">
      <rect id="長方形_24" data-name="長方形 24" width="29.655" height="46.384" fill="none"/>
    </clipPath>
  </defs>
  <g id="グループ_44" data-name="グループ 44" clip-path="url(#clip-path)">
    <path id="パス_27" data-name="パス 27" d="M12.691,28.286a33.974,33.974,0,0,0,3.7,6.764c.5.675,1.188,1.466,1.188,1.466a.757.757,0,0,0,.937.2l3.993-2.047a.76.76,0,0,0,.356-.962L21.4,30.119a.761.761,0,0,0-.914-.445l-1.766.51a.761.761,0,0,1-.887-.386,19.927,19.927,0,0,1-2.523-6.19.761.761,0,0,1,.366-.9l1.617-.87a.758.758,0,0,0,.344-.956L16.179,17.3a.763.763,0,0,0-.929-.44l-4.284,1.326a.762.762,0,0,0-.532.8s.06,1.049.175,1.88a34.017,34.017,0,0,0,2.083,7.424" transform="translate(-2.229 -3.596)" fill="#fff"/>
    <path id="パス_28" data-name="パス 28" d="M24.266,0H5.388A5.388,5.388,0,0,0,0,5.388V37.762a8.621,8.621,0,0,0,8.622,8.622H21.033a8.622,8.622,0,0,0,8.622-8.622V5.388A5.388,5.388,0,0,0,24.266,0M11.406,2.028h6.843a.7.7,0,1,1,0,1.394H11.406a.7.7,0,1,1,0-1.394M3.041,37.762V6.463H26.614v31.3a5.637,5.637,0,0,1-.1,1.018H3.139a5.567,5.567,0,0,1-.1-1.018" transform="translate(0 0)" fill="#fff"/>
  </g>
</svg>
