<svg xmlns="http://www.w3.org/2000/svg" xmlns:xlink="http://www.w3.org/1999/xlink" width="551" height="106" viewBox="0 0 551 106">
  <defs>
    <filter id="パス_126" x="0" y="0" width="551" height="106" filterUnits="userSpaceOnUse">
      <feOffset dy="5" input="SourceAlpha"/>
      <feGaussianBlur stdDeviation="3" result="blur"/>
      <feFlood flood-opacity="0.161"/>
      <feComposite operator="in" in2="blur"/>
      <feComposite in="SourceGraphic"/>
    </filter>
    <clipPath id="clip-path">
      <rect id="長方形_24" data-name="長方形 24" width="29.655" height="46.384" fill="none"/>
    </clipPath>
  </defs>
  <g transform="matrix(1, 0, 0, 1, 0, 0)" filter="url(#パス_126)">
    <g id="パス_126-2" data-name="パス 126" transform="translate(9 4)" fill="#1a1311">
      <path d="M 489 86.5 L 44 86.5 C 38.26186752319336 86.5 32.69620132446289 85.37653350830078 27.45753288269043 83.16073608398438 C 22.39686584472656 81.020263671875 17.85160064697266 77.95566558837891 13.94793319702148 74.05206298828125 C 10.04433345794678 70.14839935302734 6.979733467102051 65.60313415527344 4.839266777038574 60.54246520996094 C 2.623466730117798 55.30379867553711 1.5 49.73813247680664 1.5 44 C 1.5 38.26186752319336 2.623466730117798 32.69620132446289 4.839266777038574 27.45753288269043 C 6.979733467102051 22.39686584472656 10.04433345794678 17.85160064697266 13.94793319702148 13.94793319702148 C 17.85160064697266 10.04433345794678 22.39686584472656 6.979733467102051 27.45753288269043 4.839266777038574 C 32.69620132446289 2.623466730117798 38.26186752319336 1.5 44 1.5 L 489 1.5 C 494.7381286621094 1.5 500.3038024902344 2.623466730117798 505.54248046875 4.839266777038574 C 510.6031188964844 6.979733467102051 515.1483764648438 10.04433345794678 519.0520629882812 13.94793319702148 C 522.9556884765625 17.85160064697266 526.020263671875 22.39686584472656 528.1607055664062 27.45753288269043 C 530.3765258789062 32.69620132446289 531.5 38.26186752319336 531.5 44 C 531.5 49.73813247680664 530.3765258789062 55.30379867553711 528.1607055664062 60.54246520996094 C 526.020263671875 65.60313415527344 522.9556884765625 70.14839935302734 519.0520629882812 74.05206298828125 C 515.1483764648438 77.95566558837891 510.6031188964844 81.020263671875 505.54248046875 83.16073608398438 C 500.3038024902344 85.37653350830078 494.7381286621094 86.5 489 86.5 Z" stroke="none"/>
      <path d="M 44 3 C 38.46371459960938 3 33.09463500976562 4.083641052246094 28.0418701171875 6.220787048339844 C 23.15994262695312 8.28564453125 18.77490234375 11.24228668212891 15.0086669921875 15.00864410400391 C 11.2423095703125 18.77500152587891 8.28564453125 23.16000366210938 6.220703125 28.0418586730957 C 4.0836181640625 33.09464263916016 3 38.46371459960938 3 44 C 3 49.53628540039062 4.0836181640625 54.90535736083984 6.220703125 59.95814514160156 C 8.28564453125 64.83999633789062 11.2423095703125 69.22499847412109 15.0086669921875 72.99135589599609 C 18.77490234375 76.75771331787109 23.15994262695312 79.71435546875 28.0418701171875 81.77921295166016 C 33.09463500976562 83.91635894775391 38.46371459960938 85 44 85 L 489 85 C 494.5362854003906 85 499.9053649902344 83.91635894775391 504.9581298828125 81.77921295166016 C 509.8399963378906 79.71435546875 514.2249755859375 76.75771331787109 517.9913330078125 72.99135589599609 C 521.7576904296875 69.22499847412109 524.71435546875 64.83999633789062 526.7792358398438 59.95814514160156 C 528.9163818359375 54.90535736083984 530 49.53628540039062 530 44 C 530 38.46371459960938 528.9163818359375 33.09464263916016 526.7792358398438 28.0418586730957 C 524.71435546875 23.16000366210938 521.7576904296875 18.77500152587891 517.9913330078125 15.00864410400391 C 514.2249755859375 11.24228668212891 509.8399963378906 8.28564453125 504.9581298828125 6.220787048339844 C 499.9053649902344 4.083641052246094 494.5362854003906 3 489 3 L 44 3 M 44 0 L 489 0 C 513.3004760742188 0 533 19.69950103759766 533 44 C 533 68.30049896240234 513.3004760742188 88 489 88 L 44 88 C 19.69940185546875 88 0 68.30049896240234 0 44 C 0 19.69950103759766 19.69940185546875 0 44 0 Z" stroke="none" fill="#fff"/>
    </g>
  </g>
  <text id="お電話でのお問い合わせはこちら" transform="translate(297.663 58)" fill="#fff" font-size="22" font-family="HiraginoSans-W6, Hiragino Sans"><tspan x="-165" y="0">お電話でのお問い合わせはこちら</tspan></text>
  <g id="グループ_2002" data-name="グループ 2002" transform="translate(87.663 25)">
    <g id="グループ_44" data-name="グループ 44" transform="translate(0 0)" clip-path="url(#clip-path)">
      <path id="パス_27" data-name="パス 27" d="M12.691,28.286a33.974,33.974,0,0,0,3.7,6.764c.5.675,1.188,1.466,1.188,1.466a.757.757,0,0,0,.937.2l3.993-2.047a.76.76,0,0,0,.356-.962L21.4,30.119a.761.761,0,0,0-.914-.445l-1.766.51a.761.761,0,0,1-.887-.386,19.927,19.927,0,0,1-2.523-6.19.761.761,0,0,1,.366-.9l1.617-.87a.758.758,0,0,0,.344-.956L16.179,17.3a.763.763,0,0,0-.929-.44l-4.284,1.326a.762.762,0,0,0-.532.8s.06,1.049.175,1.88a34.017,34.017,0,0,0,2.083,7.424" transform="translate(-2.229 -3.596)" fill="#fff"/>
      <path id="パス_28" data-name="パス 28" d="M24.266,0H5.388A5.388,5.388,0,0,0,0,5.388V37.762a8.621,8.621,0,0,0,8.622,8.622H21.033a8.622,8.622,0,0,0,8.622-8.622V5.388A5.388,5.388,0,0,0,24.266,0M11.406,2.028h6.843a.7.7,0,1,1,0,1.394H11.406a.7.7,0,1,1,0-1.394M3.041,37.762V6.463H26.614v31.3a5.637,5.637,0,0,1-.1,1.018H3.139a5.567,5.567,0,0,1-.1-1.018" transform="translate(0 0)" fill="#fff"/>
    </g>
  </g>
</svg>
