<svg xmlns="http://www.w3.org/2000/svg" xmlns:xlink="http://www.w3.org/1999/xlink" width="309.559" height="35.65" viewBox="0 0 309.559 35.65">
  <defs>
    <clipPath id="clip-path">
      <rect id="長方形_126" data-name="長方形 126" width="309.559" height="35.65" fill="none"/>
    </clipPath>
  </defs>
  <g id="グループ_2090" data-name="グループ 2090" transform="translate(-128 -32.35)">
    <path id="パス_52" data-name="パス 52" d="M52.465,48.917l1.208-3.732H54.6L55.8,48.917H54.88l-.2-.809h-1.1l-.2.809Zm1.267-1.467h.778l-.384-1.512h-.009Z" transform="translate(110.027 16.95)" fill="#1a1311"/>
    <g id="グループ_70" data-name="グループ 70" transform="translate(128 32.35)">
      <g id="グループ_69" data-name="グループ 69" clip-path="url(#clip-path)">
        <path id="パス_53" data-name="パス 53" d="M58.946,45.184v2.391a.726.726,0,0,0,.129.486.684.684,0,0,0,.841,0,.722.722,0,0,0,.129-.486V45.184h.84v2.332a1.4,1.4,0,0,1-2.8,0V45.184Z" transform="translate(-19.738 -15.354)" fill="#1a1311"/>
        <path id="パス_54" data-name="パス 54" d="M66.023,45.184v.709h-.968v2.948h-.87V45.894h-.968v-.709Z" transform="translate(-21.482 -15.354)" fill="#1a1311"/>
        <path id="パス_55" data-name="パス 55" d="M71.052,48.367a1.818,1.818,0,0,1-2.5,0,2.3,2.3,0,0,1,0-2.758,1.82,1.82,0,0,1,2.5,0,2.3,2.3,0,0,1,0,2.758m-.41-1.378q0-1.173-.842-1.173t-.84,1.176q0,1.174.84,1.176t.842-1.178" transform="translate(-23.137 -15.329)" fill="#1a1311"/>
        <path id="パス_56" data-name="パス 56" d="M76.645,46.275h-.009l-.489,2.567h-.871l-.483-2.567h-.011l-.176,2.567h-.821l.411-3.657h1.017l.5,2.791h.011l.508-2.791h1.012l.411,3.657h-.842Z" transform="translate(-25.073 -15.354)" fill="#1a1311"/>
        <path id="パス_57" data-name="パス 57" d="M83.123,48.367a1.818,1.818,0,0,1-2.5,0,2.3,2.3,0,0,1,0-2.758,1.82,1.82,0,0,1,2.5,0,2.3,2.3,0,0,1,0,2.758m-.41-1.378q0-1.173-.842-1.173t-.84,1.176q0,1.174.84,1.176t.842-1.178" transform="translate(-27.239 -15.329)" fill="#1a1311"/>
        <path id="パス_58" data-name="パス 58" d="M88.78,47.766a.924.924,0,0,1-.377.817,2.262,2.262,0,0,1-1.241.259h-1V45.185h.948a2.325,2.325,0,0,1,1.188.23.755.755,0,0,1,.366.685.73.73,0,0,1-.2.52.976.976,0,0,1-.553.277v.01a1.039,1.039,0,0,1,.636.286.789.789,0,0,1,.235.574M87,46.631h.166a1.156,1.156,0,0,0,.557-.1.333.333,0,0,0,.171-.31.328.328,0,0,0-.139-.294.894.894,0,0,0-.472-.093H87Zm0,.611V48.2h.3a.883.883,0,0,0,.525-.122.46.46,0,0,0,.164-.4.359.359,0,0,0-.173-.33,1.183,1.183,0,0,0-.58-.1Z" transform="translate(-29.278 -15.354)" fill="#1a1311"/>
        <rect id="長方形_124" data-name="長方形 124" width="0.934" height="3.657" transform="translate(60.114 29.831)" fill="#1a1311"/>
        <path id="パス_59" data-name="パス 59" d="M94.61,45.184v2.953h1.545v.7h-2.42V45.184Z" transform="translate(-31.852 -15.354)" fill="#1a1311"/>
        <path id="パス_60" data-name="パス 60" d="M99.221,45.874v.743H100.6v.645H99.221v.9H100.7v.685H98.371V45.184H100.7v.689Z" transform="translate(-33.428 -15.354)" fill="#1a1311"/>
        <path id="パス_61" data-name="パス 61" d="M110.317,46.964a1.841,1.841,0,0,1-.506,1.4,2.024,2.024,0,0,1-1.45.481H107.4V45.184h.963a2.065,2.065,0,0,1,1.45.467,1.7,1.7,0,0,1,.506,1.313m-.811,0a1.153,1.153,0,0,0-.267-.843,1.069,1.069,0,0,0-.789-.267h-.221v2.323h.221a1.027,1.027,0,0,0,.794-.287,1.349,1.349,0,0,0,.261-.926" transform="translate(-36.495 -15.354)" fill="#1a1311"/>
        <path id="パス_62" data-name="パス 62" d="M113.484,45.874v.743h1.384v.645h-1.384v.9h1.481v.685h-2.331V45.184h2.331v.689Z" transform="translate(-38.274 -15.354)" fill="#1a1311"/>
        <path id="パス_63" data-name="パス 63" d="M116.831,48.842l1.184-3.657h.9l1.182,3.657h-.9l-.2-.792h-1.08l-.2.792Zm1.242-1.437h.763l-.376-1.481h-.009Z" transform="translate(-39.7 -15.354)" fill="#1a1311"/>
        <path id="パス_64" data-name="パス 64" d="M123.4,45.184v2.953h1.545v.7h-2.42V45.184Z" transform="translate(-41.635 -15.354)" fill="#1a1311"/>
        <path id="パス_65" data-name="パス 65" d="M128.012,45.874v.743H129.4v.645h-1.384v.9h1.481v.685h-2.331V45.184h2.331v.689Z" transform="translate(-43.211 -15.354)" fill="#1a1311"/>
        <path id="パス_66" data-name="パス 66" d="M132.611,47.493v1.349h-.836V45.185h1.1a2.194,2.194,0,0,1,1.212.259.887.887,0,0,1,.376.783,1,1,0,0,1-.2.6,1.031,1.031,0,0,1-.516.379v.01a1.044,1.044,0,0,1,.426.6l.386,1.027h-.875l-.347-.992a.564.564,0,0,0-.17-.283.528.528,0,0,0-.31-.073Zm.313-1.658h-.313v1.032h.278a.854.854,0,0,0,.538-.147.49.49,0,0,0,.186-.407.422.422,0,0,0-.159-.364.93.93,0,0,0-.53-.115" transform="translate(-44.778 -15.354)" fill="#1a1311"/>
        <path id="パス_67" data-name="パス 67" d="M21.051,35.65a9.831,9.831,0,0,1-3.854-.778l.274-.646c1.771.749,3.584.365,5.816-.437a9.279,9.279,0,0,0,3.042-2.143,8.482,8.482,0,0,0,1.826-3.013,6.944,6.944,0,0,0,.366-3.06,8.487,8.487,0,0,0-.754-2.806,6.686,6.686,0,0,0-1.628-2.1,7.176,7.176,0,0,0-2.287-1.543,7.256,7.256,0,0,0-5.6,0,7.2,7.2,0,0,0-3.829,9.429l.8,1.881H13.175C8.9,30.43,0,30.43,0,23.989c0-5.412,9.521-8.841,19.272-11.89,1.7-.531,3.165-.989,3.922-1.308a45.017,45.017,0,0,0,4.073-2.243C33.064,5.144,41.822,0,50.144,0V1.015c-7.585,0-15.962,6.611-21.506,9.867a44.843,44.843,0,0,1-4.394,2.4c-.876.37-2.327.823-4.164,1.4-5.2,1.626-17.373,5.431-17.373,9.306,0,1.716,1.075,3.468,8.633,3.706a9.945,9.945,0,0,1-.191-1.946A9.915,9.915,0,0,1,17.2,16.627a9.978,9.978,0,0,1,7.708,0A9.9,9.9,0,0,1,21.051,35.65" fill="#dc000c"/>
        <path id="パス_68" data-name="パス 68" d="M68.346,16.151V31.627a.775.775,0,0,1-.776.775H64.356a.776.776,0,0,1-.776-.775V21.509a.131.131,0,0,0-.257-.036l-2.9,10.364a.776.776,0,0,1-.747.566H58.087a.775.775,0,0,1-.744-.557L54.359,21.633a.131.131,0,0,0-.257.037v9.958a.775.775,0,0,1-.775.775h-.109a.775.775,0,0,1-.775-.775V16.151a.775.775,0,0,1,.775-.775h3.653a.775.775,0,0,1,.745.563l2.633,9.269a.131.131,0,0,0,.253,0l2.62-9.268a.776.776,0,0,1,.747-.564h3.7a.775.775,0,0,1,.776.775" transform="translate(-17.82 -5.225)" fill="#1a1311"/>
        <path id="パス_69" data-name="パス 69" d="M85.949,16.151V31.627a.775.775,0,0,1-.775.775h-3.39a.774.774,0,0,1-.774-.775V16.151a.775.775,0,0,1,.774-.775h3.39a.775.775,0,0,1,.775.775" transform="translate(-27.528 -5.225)" fill="#1a1311"/>
        <path id="パス_70" data-name="パス 70" d="M92.95,31.627V16.151a.775.775,0,0,1,.775-.775h6.8q5.85,0,5.85,4.178,0,2.75-3.029,3.669a.13.13,0,0,0,0,.25q3.747.959,3.748,4.4,0,4.529-5.726,4.528H93.725a.775.775,0,0,1-.775-.775m4.94-9.357a.515.515,0,0,0,.515.514h1.007q2.108,0,2.109-3.118,0-2.881-2.233-2.881H98.4a.515.515,0,0,0-.515.514Zm0,8.207a.515.515,0,0,0,.515.515H99.3q2.77,0,2.77-3.169,0-3.629-2.857-3.63H98.4a.515.515,0,0,0-.515.515Z" transform="translate(-31.585 -5.225)" fill="#1a1311"/>
        <path id="パス_71" data-name="パス 71" d="M129.2,15.376a.775.775,0,0,1,.775.775V26.8q0,5.875-6.5,5.876Q117,32.677,117,26.8V16.151a.775.775,0,0,1,.775-.775h3.39a.775.775,0,0,1,.775.775v10.8a5.247,5.247,0,0,0,.642,3.069,2.869,2.869,0,0,0,2.375.824q3.357,0,3.356-4.042V16.151a.775.775,0,0,1,.775-.775Z" transform="translate(-39.758 -5.225)" fill="#1a1311"/>
        <path id="パス_72" data-name="パス 72" d="M151.129,39.875v3.776h12.752a60.059,60.059,0,0,1,6.156.282q2.736.283,4.958.669V40.933a60.137,60.137,0,0,0-11.114-1.058Z" transform="translate(-51.355 -13.55)" fill="#1a1311"/>
        <path id="パス_73" data-name="パス 73" d="M169.748,12.418q2.733.265,4.958.652V9.4a60.4,60.4,0,0,0-11.151-1.058h-11.41v3.774h11.41q3.458.037,6.193.3" transform="translate(-51.7 -2.835)" fill="#1a1311"/>
        <path id="パス_74" data-name="パス 74" d="M153.428,23.735v3.774H162.9a60.643,60.643,0,0,1,6.193.283q2.735.281,4.957.67V24.793a56.748,56.748,0,0,0-11.15-1.058Z" transform="translate(-52.136 -8.065)" fill="#1a1311"/>
        <path id="パス_75" data-name="パス 75" d="M219.025,6.621h-23.2V10.5h19.845a22.249,22.249,0,0,1-1.695,8.68,15.655,15.655,0,0,1-3.581,4.9,15.126,15.126,0,0,1-4.287,2.769,42.826,42.826,0,0,1-6.182,1.324v3.846a55.681,55.681,0,0,0,5.6-.988,24.714,24.714,0,0,0,4.376-1.959,16.7,16.7,0,0,0,4.357-3.6,21.121,21.121,0,0,0,3.547-5.91,23.207,23.207,0,0,0,1.569-8.611V8.775h2.083V3.694h-2.435Z" transform="translate(-66.545 -1.255)" fill="#1a1311"/>
        <rect id="長方形_125" data-name="長方形 125" width="2.433" height="5.081" transform="translate(156.291 2.439)" fill="#1a1311"/>
        <path id="パス_76" data-name="パス 76" d="M258.252,5.4l-3.3-.388a36.944,36.944,0,0,1-1.26,4.018h-8.666V32.75h3.209v-1.5h16.734v1.5h3.208V9.028H257.112a29.388,29.388,0,0,0,1.14-3.63m6.717,23.184H248.235V24.624h16.734Zm0-6.537H248.235v-3.9h16.734Zm0-6.451H248.235V11.756h16.734Z" transform="translate(-83.262 -1.702)" fill="#1a1311"/>
        <path id="パス_77" data-name="パス 77" d="M308.949,6.371h-3q0,3.271-.09,6H303.1v-.689h-5.456V9.941q2.815-.3,5.367-.72l-.358-2.7a108.035,108.035,0,0,1-13.766,1.351l.149,2.61q2.671-.061,5.37-.272v1.472h-6v2.426h6v1.349H289.1v9.328h5.31v1.349h-5.76v2.4h5.76V30.1q-2.73.239-6.269.419l.15,2.639q6.658-.3,13.525-1.26l2.4,1.471a23.762,23.762,0,0,0,3.134-7.2A57.345,57.345,0,0,0,308.77,15.1h3.51v1.171q0,3.66-.059,6.177t-.167,3.99a12.722,12.722,0,0,1-.314,2.248,2.684,2.684,0,0,1-.406.991.645.645,0,0,1-.5.209,25.006,25.006,0,0,1-3.239-.269l.059,2.908a39.932,39.932,0,0,0,4.081.3,5.313,5.313,0,0,0,1.334-.134,1.934,1.934,0,0,0,.973-.8,4.351,4.351,0,0,0,.692-1.767q.21-1.109.4-3.271t.257-5.1q.059-2.939.059-7.436V12.371h-6.6q.09-2.759.09-6M297.644,17.8h2.188v1.439h-2.188Zm0,3.209h2.188v1.439h-2.188Zm-3.238,1.439H292.1V21.007h2.311Zm0-3.209H292.1V17.8h2.311Zm10.315,5.069a21.041,21.041,0,0,1-2.221,6.029l-.089-1.021q-2.64.3-4.767.51V28.535h5.068v-2.4h-5.068V24.786h5.068V15.457h-5.068V14.108h5.068V15.1h3.057a56.717,56.717,0,0,1-1.048,9.207" transform="translate(-97.912 -2.165)" fill="#1a1311"/>
        <path id="パス_78" data-name="パス 78" d="M350.189,25.2H359.7V13.447h-9.507v-2.1h11.728V8.8H350.189V6.009h-3.3V8.8H335.163v2.549H346.89v2.1h-9.507V25.2h9.507v2.221H334.834V30H346.89v3.687h3.3V30h12.056V27.423H350.189Zm0-9.358h6.388v2.28h-6.388Zm0,4.528h6.388V22.8h-6.388Zm-3.3,2.43H340.5v-2.43h6.388Zm0-4.678H340.5v-2.28h6.388Z" transform="translate(-113.78 -2.042)" fill="#1a1311"/>
        <path id="パス_79" data-name="パス 79" d="M391.83,25.951V7.6h-9.3V25.951h9.3Zm-6.3-15.653h3.451v2.729h-3.451Zm0,5.1h3.451v2.729h-3.451Zm0,5.128h3.451v2.729h-3.451Z" transform="translate(-129.989 -2.582)" fill="#1a1311"/>
        <path id="パス_80" data-name="パス 80" d="M407.687,17.077V14.439H395.872v-3.9h12.566V7.782H392.693v8.666q0,8.607-2.519,13.047a31.243,31.243,0,0,0-1.8-2.909l-2.039,1.02-2.161-1.14a22.425,22.425,0,0,1-3.958,5.907l2.28,1.65a19.644,19.644,0,0,0,3.809-5.668,33.435,33.435,0,0,1,2.49,4.379l1.5-.69,1.11,1.5a20,20,0,0,0,1.5-2.189l1.17,2.338a23.613,23.613,0,0,0,7.047-4.5,20.362,20.362,0,0,0,6.508,4.5l1.472-2.609a19.286,19.286,0,0,1-5.91-4.167,26.235,26.235,0,0,0,4.5-9.838M393.144,30.814a24.888,24.888,0,0,0,2.7-10.648,24.688,24.688,0,0,0,3.358,6.689,19.707,19.707,0,0,1-6.057,3.958m5.1-13.286-2.369.9V17.077h8.606a22.77,22.77,0,0,1-3.269,7.349,24.312,24.312,0,0,1-2.968-6.9" transform="translate(-129.201 -2.644)" fill="#1a1311"/>
        <path id="パス_81" data-name="パス 81" d="M443.395,8.592V6.372h-3.3v2.22H428.368v2.549H440.1V13.33H430.44v2.49h22.611V13.33h-9.657V11.141h11.728V8.592Z" transform="translate(-145.564 -2.165)" fill="#1a1311"/>
        <path id="パス_82" data-name="パス 82" d="M459.6,35.163c-.02.3-.055.65-.1,1.051s-.085.67-.1.809a1.706,1.706,0,0,1-.525.838,1.726,1.726,0,0,1-.448.137,2.836,2.836,0,0,1-.586.075h-.811a9.022,9.022,0,0,1-2.382-.166q-.377-.164-.376-1.063V29.584h-3.269v7.889a8.049,8.049,0,0,0,.1,1.5,2.7,2.7,0,0,0,.376.931,1.442,1.442,0,0,0,.973.568,12.44,12.44,0,0,0,1.621.226q.915.074,2.594.075,1.229,0,1.874-.015a10.53,10.53,0,0,0,1.394-.135A5.942,5.942,0,0,0,461,40.381a2.036,2.036,0,0,0,.7-.54,2.213,2.213,0,0,0,.51-.809q.12-.389.284-1.231a12.06,12.06,0,0,0,.209-1.633q.045-.8.107-2.206l-3.149-.239c-.022.66-.042,1.14-.062,1.439" transform="translate(-153.252 -10.053)" fill="#1a1311"/>
        <path id="パス_83" data-name="パス 83" d="M434.667,35.191q-1.875,2.054-6.254,3.284l1.352,2.611a14.96,14.96,0,0,0,7.481-4.155,11.715,11.715,0,0,0,2.716-7.272l-3.089-.3a9.664,9.664,0,0,1-2.206,5.833" transform="translate(-145.579 -9.976)" fill="#1a1311"/>
        <path id="パス_84" data-name="パス 84" d="M454.7,29.751v-6.3H429.688V30.08h3.119V25.913H451.58v3.838Z" transform="translate(-146.012 -7.969)" fill="#1a1311"/>
      </g>
    </g>
  </g>
</svg>
