<svg id="グループ_2100" data-name="グループ 2100" xmlns="http://www.w3.org/2000/svg" xmlns:xlink="http://www.w3.org/1999/xlink" width="114.828" height="117.82" viewBox="0 0 114.828 117.82">
  <defs>
    <clipPath id="clip-path">
      <rect id="長方形_10" data-name="長方形 10" width="114.828" height="117.82" fill="#818181"/>
    </clipPath>
  </defs>
  <g id="グループ_13" data-name="グループ 13" clip-path="url(#clip-path)">
    <path id="パス_9" data-name="パス 9" d="M112.091,98.553,47.63,35.3a25.39,25.39,0,0,0,2.233-5.132,7.706,7.706,0,0,1,.38-1.761c.113-.336.205-.681.3-1.023A25.5,25.5,0,0,0,37.042,0,1.589,1.589,0,0,0,36.7.04L34.628.547a1.483,1.483,0,0,0-.923.69,1.467,1.467,0,0,0-.149,1.14l4.451,15.986a1.483,1.483,0,0,1-.555,1.593L27.337,27.3a1.5,1.5,0,0,1-1.069.268L15.521,26.086a1.469,1.469,0,0,1-1.22-1.064L9.6,8.137A1.475,1.475,0,0,0,7.828,7.1l-2.719.665a1.446,1.446,0,0,0-.391.183A25.422,25.422,0,0,0,0,22.606,25.383,25.383,0,0,0,7.446,40.432a25.647,25.647,0,0,0,21.808,7.181c1.114-.162,2.13-.273,3.066-.339a25.116,25.116,0,0,0,2.638-.913c10.808,10.943,63.92,65.405,63.92,65.405a9.342,9.342,0,1,0,13.211-13.212m-3.3,9.908a4.672,4.672,0,1,1,0-6.607,4.669,4.669,0,0,1,0,6.607" transform="translate(0)" fill="#818181"/>
    <path id="パス_10" data-name="パス 10" d="M97.655,31.525l10.476-2.657,10.085-17.614-4.885-4.635-4.884-4.635L91.388,12.978l-2.1,10.6L71.172,42.665l8.241,8.083Z" transform="translate(-5.661 -0.158)" fill="#818181"/>
    <path id="パス_11" data-name="パス 11" d="M39.6,69.946c-2.086,1.8-5.04-.432-8.908,3.648L5.117,100.541a13.448,13.448,0,1,0,19.508,18.516L50.2,92.106c3.871-4.077,1.487-6.907,3.175-9.088a4.953,4.953,0,0,1,.979-.992c-4.84-4.953-9.472-9.692-13.479-13.787A3.721,3.721,0,0,1,39.6,69.946" transform="translate(-0.113 -5.428)" fill="#818181"/>
  </g>
</svg>
