<svg xmlns="http://www.w3.org/2000/svg" xmlns:xlink="http://www.w3.org/1999/xlink" width="178" height="178" viewBox="0 0 178 178">
  <defs>
    <clipPath id="clip-path">
      <rect id="長方形_1116" data-name="長方形 1116" width="56.905" height="67.555" fill="none"/>
    </clipPath>
  </defs>
  <g id="グループ_74" data-name="グループ 74" transform="translate(-87 -4544)">
    <path id="パス_88" data-name="パス 88" d="M89,0A89,89,0,1,1,0,89,89,89,0,0,1,89,0Z" transform="translate(87 4544)" fill="#dc000c"/>
    <path id="交差_1" data-name="交差 1" d="M32.325,157.625,152.952,27.1A89,89,0,0,1,32.325,157.625Z" transform="translate(87 4544)" fill="#dc000c" opacity="0.45" style="mix-blend-mode: multiply;isolation: isolate"/>
  </g>
  <text id="引取_納車" data-name="引取・納車" transform="translate(89 64)" fill="#fff" font-size="22" font-family="HiraginoSans-W3, Hiragino Sans"><tspan x="-55" y="0">引取・納車</tspan></text>
  <g id="グループ_2015" data-name="グループ 2015" transform="translate(61.941 78.445)">
    <g id="グループ_2014" data-name="グループ 2014" transform="translate(-0.941)" clip-path="url(#clip-path)">
      <path id="パス_134" data-name="パス 134" d="M10.314,54.04v3.116a1.489,1.489,0,0,0,.982,1.593l5.783,2.888,5.783-2.888a1.437,1.437,0,0,0,.982-1.593V54.04a1.628,1.628,0,0,0-1.778-1.778H12.092a1.618,1.618,0,0,0-1.778,1.778m2.134.213h9.268v2.682l-4.631,2.454-4.638-2.454Zm32.365-1.992h-9.98a1.628,1.628,0,0,0-1.778,1.778v3.116a1.437,1.437,0,0,0,.982,1.593l5.783,2.888L45.6,58.749a1.481,1.481,0,0,0,.982-1.593V54.04a1.61,1.61,0,0,0-1.771-1.778m-.356,4.673-4.631,2.454L35.2,56.935V54.253h9.261ZM14.226,20.608h2.845A11.435,11.435,0,0,0,20.258,28.8a11.436,11.436,0,0,0,8.194,3.187A11.435,11.435,0,0,0,36.647,28.8a11.435,11.435,0,0,0,3.187-8.194h2.845A13.759,13.759,0,0,1,28.452,34.835,13.759,13.759,0,0,1,14.226,20.608M41.6,38.469l-2.8-1.778a1.787,1.787,0,0,0-2.013-.085,18.37,18.37,0,0,1-16.666,0,1.787,1.787,0,0,0-2.013.085l-2.8,1.778C2.98,45.846,0,50.533,0,61.793v5.762H56.9V61.793c0-11.26-2.98-15.948-15.307-23.324M27.208,64.71H2.845V61.793c0-12.114,4.225-15,13.977-21.062l.825-.519.982,5.811c.249,1.586,1.33,1.9,2.639,1.252l5.947-3.457V64.71Zm.071-23.488L20.8,44.843l-1-5.406a24.089,24.089,0,0,0,7.469,1.757v.028Zm2.347-.028a24.089,24.089,0,0,0,7.469-1.757l-1,5.406-6.48-3.621v-.028ZM54.06,64.71H29.7V43.826l5.947,3.457c1.309.647,2.39.334,2.639-1.252l.982-5.811.825.519c9.745,6.053,13.97,8.941,13.97,21.055ZM28.452,20.58c6.978,0,9.176-.633,11.537-2.817h2.689V13.787c0-7.419-2.3-11.772-6.018-13.06C34.363-.069,31.348,0,28.452,0s-5.911-.071-8.209.726c-3.713,1.287-6.018,5.641-6.018,13.06v3.976h2.689c2.362,2.184,4.56,2.817,11.537,2.817M21.1,3.3a27.52,27.52,0,0,1,7.355-.6,27.52,27.52,0,0,1,7.355.6c1.728.541,3.82,2.475,4,9.176a103.259,103.259,0,0,0-11.36-.683,101.465,101.465,0,0,0-11.36.683c.185-6.7,2.276-8.635,4-9.176m7.355,10.627c5.306,0,11.381.6,11.381.6-2.867,2.988-5.961,3.35-11.381,3.35s-8.514-.37-11.381-3.35c0,0,6.075-.6,11.381-.6" transform="translate(0 0)" fill="#fff"/>
    </g>
  </g>
</svg>
