<svg xmlns="http://www.w3.org/2000/svg" xmlns:xlink="http://www.w3.org/1999/xlink" width="178" height="178" viewBox="0 0 178 178">
  <defs>
    <clipPath id="clip-path">
      <rect id="長方形_1118" data-name="長方形 1118" width="74" height="57" transform="translate(0.047 0.26)" fill="#fff"/>
    </clipPath>
  </defs>
  <g id="グループ_74" data-name="グループ 74" transform="translate(-87 -4544)">
    <path id="パス_88" data-name="パス 88" d="M89,0A89,89,0,1,1,0,89,89,89,0,0,1,89,0Z" transform="translate(87 4544)" fill="#dc000c"/>
    <path id="交差_1" data-name="交差 1" d="M32.325,157.625,152.952,27.1A89,89,0,0,1,32.325,157.625Z" transform="translate(87 4544)" fill="#dc000c" opacity="0.45" style="mix-blend-mode: multiply;isolation: isolate"/>
  </g>
  <text id="洗_車" data-name="洗  車" transform="translate(89 64)" fill="#fff" font-size="24" font-family="HiraginoSans-W3, Hiragino Sans"><tspan x="-30.668" y="0">洗</tspan><tspan y="0" xml:space="preserve" font-family="Helvetica">  </tspan><tspan y="0">車</tspan></text>
  <g id="グループ_2019" data-name="グループ 2019" transform="translate(53.814 83.284)">
    <g id="グループ_2018" data-name="グループ 2018" transform="translate(0.138 0.456)" clip-path="url(#clip-path)">
      <path id="パス_136" data-name="パス 136" d="M74.071,22.546c0-7.959-1.424-13.1-4.246-16.888A13.729,13.729,0,0,0,58.4,0,41.439,41.439,0,0,0,47.716,1.619a40.573,40.573,0,0,1-10.677,1.6,40.573,40.573,0,0,1-10.677-1.6A41.439,41.439,0,0,0,15.681,0,13.729,13.729,0,0,0,4.253,5.658C1.435,9.443.007,14.586.007,22.546H0V36.234c0,6.884,1.431,12.295,4.253,16.082a13.723,13.723,0,0,0,11.427,5.658,41.439,41.439,0,0,0,10.682-1.619,40.573,40.573,0,0,1,10.677-1.6,40.573,40.573,0,0,1,10.677,1.6A41.439,41.439,0,0,0,58.4,57.975a13.729,13.729,0,0,0,11.427-5.658c2.822-3.788,4.253-9.2,4.253-16.082V22.546ZM8.127,8.383h0A8.95,8.95,0,0,1,15.679,4.67,37.008,37.008,0,0,1,25.19,6.145,45.079,45.079,0,0,0,37.039,7.891,45.055,45.055,0,0,0,48.887,6.145,37.008,37.008,0,0,1,58.4,4.67a8.951,8.951,0,0,1,7.554,3.713c2.156,2.894,3.3,7.619,3.3,13.357s-1.139,10.307-3.3,13.2A8.95,8.95,0,0,1,58.4,38.65a37.008,37.008,0,0,1-9.511-1.475,45.055,45.055,0,0,0-11.848-1.746,45.055,45.055,0,0,0-11.848,1.746,37.008,37.008,0,0,1-9.511,1.475,8.951,8.951,0,0,1-7.554-3.713c-2.156-2.89-3.3-7.458-3.3-13.2s1.139-10.464,3.3-13.357M65.952,49.431A8.95,8.95,0,0,1,58.4,53.143a37.008,37.008,0,0,1-9.511-1.475,45.056,45.056,0,0,0-11.848-1.746,45.055,45.055,0,0,0-11.848,1.746,37.009,37.009,0,0,1-9.511,1.475,8.951,8.951,0,0,1-7.554-3.713c-1.846-2.478-3.12-6.318-3.386-11.2,2.622,3.578,6.579,5.088,10.939,5.088A41.439,41.439,0,0,0,26.362,41.7a40.573,40.573,0,0,1,10.677-1.6,40.573,40.573,0,0,1,10.677,1.6A41.439,41.439,0,0,0,58.4,43.32c4.36,0,8.318-1.511,10.939-5.088-.266,4.88-1.54,8.72-3.386,11.2" transform="translate(-0.04 -0.132)" fill="#fff"/>
      <path id="パス_137" data-name="パス 137" d="M199.429,123.857A4.429,4.429,0,1,0,195,119.429a4.429,4.429,0,0,0,4.429,4.429m0-5.959a1.53,1.53,0,1,1-1.53,1.53,1.53,1.53,0,0,1,1.53-1.53" transform="translate(-179.339 -105.872)" fill="#fff"/>
      <path id="パス_138" data-name="パス 138" d="M509.429,263.857A4.429,4.429,0,1,0,505,259.429a4.429,4.429,0,0,0,4.429,4.429m0-5.959a1.53,1.53,0,1,1-1.53,1.53,1.53,1.53,0,0,1,1.53-1.53" transform="translate(-464.377 -234.599)" fill="#fff"/>
      <path id="パス_139" data-name="パス 139" d="M679.429,113.857A4.429,4.429,0,1,0,675,109.429a4.429,4.429,0,0,0,4.429,4.429m0-5.958a1.53,1.53,0,1,1-1.53,1.53,1.53,1.53,0,0,1,1.53-1.53" transform="translate(-620.689 -96.677)" fill="#fff"/>
      <path id="パス_140" data-name="パス 140" d="M219.312,287.5a1.812,1.812,0,1,0,1.812,1.812,1.812,1.812,0,0,0-1.812-1.812" transform="translate(-200.027 -264.482)" fill="#fff"/>
      <path id="パス_141" data-name="パス 141" d="M679.312,367.5a1.812,1.812,0,1,0,1.812,1.812,1.812,1.812,0,0,0-1.812-1.812" transform="translate(-622.987 -338.041)" fill="#fff"/>
      <path id="パス_142" data-name="パス 142" d="M739.312,267.5a1.812,1.812,0,1,0,1.812,1.812,1.812,1.812,0,0,0-1.812-1.812" transform="translate(-678.156 -246.093)" fill="#fff"/>
      <path id="パス_143" data-name="パス 143" d="M559.312,151.123a1.812,1.812,0,1,0-1.812-1.812,1.812,1.812,0,0,0,1.812,1.812" transform="translate(-512.65 -135.755)" fill="#fff"/>
      <path id="パス_144" data-name="パス 144" d="M379.312,231.123a1.812,1.812,0,1,0-1.812-1.812,1.812,1.812,0,0,0,1.812,1.812" transform="translate(-347.144 -209.313)" fill="#fff"/>
      <path id="パス_145" data-name="パス 145" d="M699.312,577.5a1.812,1.812,0,1,0,1.812,1.812,1.812,1.812,0,0,0-1.812-1.812" transform="translate(-641.377 -531.131)" fill="#fff"/>
      <path id="パス_146" data-name="パス 146" d="M499.312,537.5a1.812,1.812,0,1,0,1.812,1.812,1.812,1.812,0,0,0-1.812-1.812" transform="translate(-457.481 -494.352)" fill="#fff"/>
      <path id="パス_147" data-name="パス 147" d="M199.312,577.5a1.812,1.812,0,1,0,1.812,1.812,1.812,1.812,0,0,0-1.812-1.812" transform="translate(-181.637 -531.131)" fill="#fff"/>
      <path id="パス_148" data-name="パス 148" d="M299.312,557.5a1.812,1.812,0,1,0,1.812,1.812,1.812,1.812,0,0,0-1.812-1.812" transform="translate(-273.585 -512.742)" fill="#fff"/>
      <path id="パス_149" data-name="パス 149" d="M297.5,369.312a1.812,1.812,0,1,0,1.812-1.812,1.812,1.812,0,0,0-1.812,1.812" transform="translate(-273.585 -338.041)" fill="#fff"/>
    </g>
  </g>
</svg>
