<svg xmlns="http://www.w3.org/2000/svg" xmlns:xlink="http://www.w3.org/1999/xlink" width="178" height="178" viewBox="0 0 178 178">
  <defs>
    <clipPath id="clip-path">
      <rect id="長方形_1117" data-name="長方形 1117" width="78" height="66" transform="translate(0.066 -0.445)" fill="none"/>
    </clipPath>
  </defs>
  <g id="グループ_74" data-name="グループ 74" transform="translate(-87 -4544)">
    <path id="パス_88" data-name="パス 88" d="M89,0A89,89,0,1,1,0,89,89,89,0,0,1,89,0Z" transform="translate(87 4544)" fill="#dc000c"/>
    <path id="交差_1" data-name="交差 1" d="M32.325,157.625,152.952,27.1A89,89,0,0,1,32.325,157.625Z" transform="translate(87 4544)" fill="#dc000c" opacity="0.45" style="mix-blend-mode: multiply;isolation: isolate"/>
  </g>
  <text id="代_車" data-name="代  車" transform="translate(89 64)" fill="#fff" font-size="22" font-family="HiraginoSans-W3, Hiragino Sans"><tspan x="-28.112" y="0">代</tspan><tspan y="0" xml:space="preserve" font-family="Helvetica">  </tspan><tspan y="0">車</tspan></text>
  <g id="グループ_2017" data-name="グループ 2017" transform="translate(49.934 78.75)">
    <g id="グループ_2016" data-name="グループ 2016" transform="translate(0 -0.304)" clip-path="url(#clip-path)">
      <path id="パス_135" data-name="パス 135" d="M16.985,32.484H8.917a1.72,1.72,0,0,0-1.911,1.911v4.671A4.038,4.038,0,0,0,11.04,43.1h8.917a1.682,1.682,0,0,0,1.911-1.911V37.367a4.889,4.889,0,0,0-4.883-4.883M18.9,40.3H11.04a.982.982,0,0,1-1.062-1.062V35.287h7.006A1.8,1.8,0,0,1,18.9,37.2Zm50.319-7.813H61.147a4.889,4.889,0,0,0-4.883,4.883v3.822A1.914,1.914,0,0,0,58.174,43.1h8.917a4.038,4.038,0,0,0,4.034-4.034V34.395a1.914,1.914,0,0,0-1.911-1.911m-1.062,6.752A1.062,1.062,0,0,1,67.091,40.3H59.236V37.2a1.914,1.914,0,0,1,1.911-1.911h7.006Zm-38.217,8.11H48.2V37.58H29.936Zm2.972-6.964H45.223v4.161H32.909ZM74.692,25.911c1.18-.7,1.741-1.979,1.741-3.83V19.533a5.56,5.56,0,0,0-5.945-5.945H65.656l-1.342-5.7A9.8,9.8,0,0,0,54.386,0H23.745a9.8,9.8,0,0,0-9.928,7.89l-1.342,5.7H7.643A5.56,5.56,0,0,0,1.7,19.533v2.548c0,1.851.561,3.134,1.741,3.83A10.715,10.715,0,0,0,0,33.97V54.353H3.4v6.794a3.4,3.4,0,0,0,3.4,3.4h8.493a3.4,3.4,0,0,0,3.4-3.4V54.353H59.448v6.794a3.4,3.4,0,0,0,3.4,3.4h8.493a3.4,3.4,0,0,0,3.4-3.4V54.353h3.4V33.97a10.715,10.715,0,0,0-3.439-8.059m-4.2-9.1a2.279,2.279,0,0,1,2.548,2.548v2.887c0,.968-.382,1.452-1.113,1.588a23.991,23.991,0,0,0-2.429-1.231c-1.631-.73-1.97-1.163-2.327-2.624l-.756-3.176h4.076ZM5.1,19.363a2.279,2.279,0,0,1,2.548-2.548h4.068l-.756,3.176c-.348,1.461-.688,1.894-2.327,2.624A23.992,23.992,0,0,0,6.2,23.847c-.73-.144-1.113-.62-1.113-1.588v-2.9ZM15.287,61.316H6.794V54.353h8.493Zm56.051,0H62.845V54.353h8.493Zm3.4-10.361H3.4V33.97a7.314,7.314,0,0,1,1.58-4.713,12.888,12.888,0,0,1,5.011-3.524c2.7-1.189,3.618-2.191,4.28-4.96l2.854-12.11A6.556,6.556,0,0,1,23.745,3.4h30.65a6.556,6.556,0,0,1,6.624,5.265l2.845,12.11c.662,2.769,1.588,3.762,4.28,4.96a12.953,12.953,0,0,1,5.011,3.524,7.314,7.314,0,0,1,1.58,4.713ZM61.563,25.478,58.3,10.786a4.894,4.894,0,0,0-4.977-3.992H24.807a4.9,4.9,0,0,0-4.977,3.992L16.569,25.478ZM23.151,11.524a1.631,1.631,0,0,1,1.656-1.333H53.325a1.623,1.623,0,0,1,1.656,1.333l2.352,10.556H20.8Z" transform="translate(0 0.283)" fill="#fff"/>
    </g>
  </g>
</svg>
