<svg xmlns="http://www.w3.org/2000/svg" xmlns:xlink="http://www.w3.org/1999/xlink" width="145.195" height="138.821" viewBox="0 0 145.195 138.821">
  <defs>
    <clipPath id="clip-path">
      <rect id="長方形_9" data-name="長方形 9" width="145.195" height="138.82" fill="#818181"/>
    </clipPath>
  </defs>
  <g id="グループ_11" data-name="グループ 11" transform="translate(1 1.031)">
    <g id="グループ_72" data-name="グループ 72">
      <path id="パス_3" data-name="パス 3" d="M38.053,72.21V55.551H43.3V50.878H27.567v4.673h5.243V72.21Z" transform="translate(3.703 6.835)" fill="#818181"/>
      <g id="グループ_12" data-name="グループ 12" transform="translate(-1 -1.031)">
        <g id="グループ_11-2" data-name="グループ 11" clip-path="url(#clip-path)">
          <path id="パス_4" data-name="パス 4" d="M51.116,72.411a7.824,7.824,0,0,0,5.961-2.4c2.248-2.247,2.159-5.244,2.159-8.45s.09-6.2-2.159-8.449a7.824,7.824,0,0,0-5.961-2.4,7.829,7.829,0,0,0-5.963,2.4C42.905,55.363,43,58.359,43,61.564s-.091,6.2,2.156,8.45a7.829,7.829,0,0,0,5.963,2.4m-2.1-16.089a2.833,2.833,0,0,1,4.194,0c.48.63.78,1.348.78,5.243s-.3,4.584-.78,5.213a2.773,2.773,0,0,1-4.194,0c-.48-.63-.779-1.318-.779-5.213s.3-4.613.779-5.243" transform="translate(5.776 6.814)" fill="#818181"/>
          <path id="パス_5" data-name="パス 5" d="M64.117,72.21H69.36V55.551H74.6V50.878H58.873v4.673h5.244Z" transform="translate(7.909 6.835)" fill="#818181"/>
          <path id="パス_6" data-name="パス 6" d="M77.434,72.21l1.048-3.176h6.561l.989,3.176h5.483L83.755,50.878H79.711L71.951,72.21Zm4.434-13.243,1.8,5.693H79.951Z" transform="translate(9.666 6.835)" fill="#818181"/>
          <path id="パス_7" data-name="パス 7" d="M124.866,20.328A69.213,69.213,0,0,0,75.784,0V16.825A52.614,52.614,0,1,1,25.033,55.671l2.834,1.765V55.194a.884.884,0,0,1,.885-.884h7.867l2.649-34.688a3.294,3.294,0,0,0-4.805-2.988L1.239,36.223A2.485,2.485,0,0,0,.007,38.575a3.22,3.22,0,0,0,1.559,2.475l8.7,5.422a69.413,69.413,0,1,0,114.6-26.144" transform="translate(0 0)" fill="#818181"/>
          <path id="パス_8" data-name="パス 8" d="M91.1,50.878V72.21h14.2V67.537H96.348V50.878Z" transform="translate(12.239 6.835)" fill="#818181"/>
        </g>
      </g>
    </g>
  </g>
</svg>
